# xmcd
#
# Track frame offsets:
#	150
#	22238
#	36856
#	72342
#	87299
#	113545
#	143039
#	172995
#	201701
#	223250
#	244935
#	263575
#
# Disc length: 3753 seconds
#
# Revision: 1
# Processed by: cddbd v1.4PL0 Copyright (c) Steve Scherf et al.
# Submitted via: audiograbber 1.81.01
#
DISCID=b30ea70c
DTITLE=Doc Hoc and Blues Deluxe - Soul Spot
DYEAR=2003
DGENRE=Blues
TTITLE0=Soul Spot
TTITLE1=Moment of Truth
TTITLE2=The Cheatin Kind
TTITLE3=Metallic Blue
TTITLE4=Java Jones
TTITLE5=Promise Man
TTITLE6=Livin Like A King
TTITLE7=Love Handles
TTITLE8=Sweet Thing
TTITLE9=Right Mind
TTITLE10=Youll Have That
TTITLE11=Oopsie Daisy
EXTD=
EXTT0=
EXTT1=
EXTT2=
EXTT3=
EXTT4=
EXTT5=
EXTT6=
EXTT7=
EXTT8=
EXTT9=
EXTT10=
EXTT11=
PLAYORDER=
